<svg xmlns="http://www.w3.org/2000/svg" viewBox="0 0 48 48" id="sneakers,converse,shoe,shoes,footwear"><path d="M10.675 22.179a.5.5 0 0 1 .182-.684 10.863 10.863 0 0 0 1.643-1.111c.582-.5 1.395-1.223 2.318-2.041l1.769-1.565a.5.5 0 1 1 .662.75l-1.767 1.564c-.928.821-1.744 1.545-2.329 2.049a11.845 11.845 0 0 1-1.795 1.221.5.5 0 0 1-.25.067.5.5 0 0 1-.433-.25Zm29.33 8.962c-.89.365-1.783.728-2.54 1.029-.608.241-1.47.668-2.453 1.16a.5.5 0 1 0 .448.9c.962-.482 1.8-.9 2.374-1.126.761-.3 1.658-.667 2.55-1.033a.5.5 0 1 0-.379-.925Zm4.2-5.034a2.486 2.486 0 0 1-1.466 1.733c-1.4.585-4.125 1.721-6.015 2.471-.736.292-1.72.786-2.861 1.358-2.882 1.444-6.827 3.421-10.745 4.15a47.138 47.138 0 0 1-8.382.77c-3.9 0-7.623-.545-9.916-1.921a3.355 3.355 0 0 1-1.234-2.323 4.866 4.866 0 0 1 .676-3.632.227.227 0 0 1 .006-.025v-.01a2.082 2.082 0 0 1 .74-.76 38.638 38.638 0 0 1 3.68-1.94 28.914 28.914 0 0 0 5.77-3.32c.13-.11.27-.24.42-.37.3-.26.64-.56 1.01-.89.3.05.75.12 1.27.22a13.923 13.923 0 0 1 4.65 1.66.566.566 0 0 0 .28.08.522.522 0 0 0 .42-.22.515.515 0 0 0-.15-.7 13.463 13.463 0 0 0-4.27-1.65c-.45-.1-.87-.18-1.23-.25a1.059 1.059 0 0 0 .12-.1c.22-.19.44-.39.67-.59.31.06.72.15 1.19.27a17.527 17.527 0 0 1 4.59 1.8.484.484 0 0 0 .26.07.52.52 0 0 0 .43-.24.505.505 0 0 0-.18-.69 17.73 17.73 0 0 0-4.19-1.74c-.43-.12-.82-.22-1.17-.29.19-.17.39-.34.58-.51.32.07.73.16 1.19.27a19.473 19.473 0 0 1 4.7 1.75.484.484 0 0 0 .26.07.5.5 0 0 0 .25-.93 18.929 18.929 0 0 0-4.3-1.69c-.42-.11-.81-.21-1.16-.3.22-.19.44-.38.65-.57.3.06.72.15 1.22.27a17.843 17.843 0 0 1 4.71 1.75.484.484 0 0 0 .26.07.52.52 0 0 0 .43-.24.511.511 0 0 0-.17-.69 17.394 17.394 0 0 0-4.29-1.69c-.44-.12-.85-.22-1.21-.29a40.65 40.65 0 0 1 3.32-2.65 3.68 3.68 0 0 1 3.03-.5 4.072 4.072 0 0 1 2.37 2.03 22.727 22.727 0 0 0 3.11-1.41c2.54-1.28 5.41-2.73 7.04-2.27a1.809 1.809 0 0 1 .76.42.61.61 0 0 1 .16.12A13.642 13.642 0 0 1 44.37 22.1v.02a9.721 9.721 0 0 1-.163 3.987ZM27.76 19.5a.5.5 0 1 0 .5-.5.5.5 0 0 0-.5.5Zm3.16-3.43a4.976 4.976 0 0 0 2.17 1.44 5.533 5.533 0 0 0 4.2 0c1.75-.83 3.64-3.21 3.53-4.46a.614.614 0 0 0-.53-.59c-1.24-.35-4.17 1.12-6.31 2.2a26.612 26.612 0 0 1-3.06 1.408Zm-4.81 4.79a.5.5 0 0 0 .5.5.508.508 0 0 0 .5-.5.5.5 0 0 0-.5-.5.5.5 0 0 0-.5.498Zm-1.71 1.38a.5.5 0 0 0 .5.5.5.5 0 0 0 .5-.5.508.508 0 0 0-.5-.5.5.5 0 0 0-.5.498Zm-1.71 1.51a.5.5 0 0 0 .5.5.5.5 0 0 0 .5-.5.508.508 0 0 0-.5-.5.5.5 0 0 0-.5.498Zm-17.5 5.37c.08.41 2.36 1.35 7.46 1.74a47.674 47.674 0 0 0 15.38-1.99 54.256 54.256 0 0 0 6.52-2.66c.5-.23.98-.45 1.45-.66a25.128 25.128 0 0 0-2.9-.43 26.861 26.861 0 0 0-5.82.43 32.521 32.521 0 0 1-4.07.42 3.04 3.04 0 0 1-1.92-.46c-2.87-2.35-5.26-2.43-5.83-2.39-.13.1-.24.2-.35.29a29.388 29.388 0 0 1-5.99 3.47 37.118 37.118 0 0 0-3.56 1.88c-.29.188-.37.328-.37.358Zm38.289-6.039a15.508 15.508 0 0 1-4.319 2.269c-.46.15-.96.34-1.5.56a.612.612 0 0 1-.12.05c-.8.34-1.67.74-2.58 1.16a54.516 54.516 0 0 1-6.64 2.7 51.366 51.366 0 0 1-13.7 2.11c-.7 0-1.39-.03-2.05-.08-2.493-.189-6.464-.657-7.866-1.809a4.654 4.654 0 0 0-.131 2.137 2.546 2.546 0 0 0 .763 1.635c3.591 2.154 11.573 2.147 17.6 1.025 3.78-.7 7.653-2.644 10.481-4.061 1.161-.583 2.164-1.085 2.94-1.393a409.498 409.498 0 0 0 6-2.465 1.479 1.479 0 0 0 .878-1.032 9.794 9.794 0 0 0 .244-2.808ZM8.913 23.6a.5.5 0 1 0-.5-.5.5.5 0 0 0 .5.5Zm33.6 6.821a.5.5 0 1 0 .5.5.5.5 0 0 0-.502-.497Z" fill="#34a853" class="color000000 svgShape"></path></svg>